# xmcd
#
# Track frame offsets: 
#        150
#        12815
#        28622
#        47438
#        61155
#        78904
#        87916
#        97027
#        119079
#        132971
#        149830
#        165674
#        182279
#        194080
#
# Disc length: 2891 seconds
#
# Revision: 0
# Processed by: cddbd v1.4PL0 Copyright (c) Steve Scherf et al.
# Submitted via: ExactAudioCopy v0.90a11
#
DISCID=bc0b490e
DTITLE=Sugarcrane - Barney's Revenge
DYEAR=1900
DGENRE=
TTITLE0=Hate To Be Messed With
TTITLE1=Got A Heart
TTITLE2=It Tears Me Up
TTITLE3=Barney's Revenge
TTITLE4=Meet Me In The Corner
TTITLE5=Wouldn't Know
TTITLE6=Baby, You Got What I Want
TTITLE7=Is It A Crime
TTITLE8=Simple Mind
TTITLE9=It's Gettin' Dark
TTITLE10=The Truth Hurts
TTITLE11=She's My Swamp Thang
TTITLE12=Marguerita
TTITLE13=Midnight Train
EXTD=
EXTT0=
EXTT1=
EXTT2=
EXTT3=
EXTT4=
EXTT5=
EXTT6=
EXTT7=
EXTT8=
EXTT9=
EXTT10=
EXTT11=
EXTT12=
EXTT13=
PLAYORDER=
